<svg width="31" height="30" viewBox="0 0 31 30" fill="none" xmlns="http://www.w3.org/2000/svg">
<path opacity="0.5" d="M30.9925 0.198582L23.4077 27.0679C23.3692 27.1898 23.2149 27.2264 23.1249 27.141L18.047 22.3233L21.8522 8.85822C21.8908 8.73625 21.7751 8.62648 21.6465 8.66307L7.45406 12.2733L2.40186 7.47999C2.31187 7.39462 2.35043 7.24826 2.47899 7.21167L30.7868 0.00343474C30.9153 -0.0209586 31.031 0.0888115 30.9925 0.198582Z" fill="#00B37E"/>
<path opacity="0.5" d="M18.0467 22.3231L16.0927 29.2752C16.0541 29.3972 15.8999 29.4338 15.8099 29.3484L0.0490434 14.4075C-0.0409451 14.3221 -0.00237881 14.1758 0.126176 14.1392L7.45381 12.2731L18.0467 22.3231Z" fill="#00B37E"/>
<path d="M21.8516 8.85806L18.0464 22.3232L7.45343 12.2731L21.6459 8.66291C21.7744 8.62632 21.8901 8.73609 21.8516 8.85806Z" fill="#00B37E"/>
</svg>
